<svg xmlns="http://www.w3.org/2000/svg" viewBox="0 0 1254 1254" role="img" aria-label="Ambient">
  <g transform="translate(0 1254) scale(.1 -.1)" fill="#fff" fill-rule="evenodd">
    <path d="M6174 10800 c544 -52 1055 -371 1383 -863 135 -203 220 -391 344 -761 81 -241 138 -384 204 -517 187 -372 455 -641 794 -796 118 -54 258 -99 505 -163 351 -90 505 -144 731 -257 665 -333 1097 -930 1212 -1673 24 -158 24 -470 -1 -635 -138 -922 -748 -1746 -1567 -2116 -349 -158 -697 -236 -1134 -255 -213 -9 -583 22 -1015 85 -586 86 -996 76 -1418 -35 -260 -68 -493 -164 -827 -339 -655 -344 -871 -439 -1175 -515 -387 -97 -790 -92 -1131 15 -504 158 -901 483 -1148 940 -147 272 -217 532 -228 845 -15 423 106 836 355 1215 172 262 366 464 647 675 121 91 201 143 596 390 321 201 491 370 616 616 111 217 162 452 163 744 0 170 -15 313 -69 638 -49 298 -49 298 -60 467 -35 521 129 1062 450 1487 88 117 295 321 418 412 408 303 880 441 1355 396zM6638 6355 c-194 -32 -410 -126 -585 -255 -399 -294 -774 -869 -843 -1293 -15 -93 -12 -265 6 -353 9 -44 35 -121 59 -171 38 -80 56 -105 137 -186 172 -171 381 -252 715 -277 283 -21 972 47 1478 146 729 143 1168 402 1296 764 34 96 33 247 -3 348 -70 194 -230 372 -508 564 -129 89 -645 419 -750 480 -188 109 -363 180 -534 219 -119 27 -347 34 -468 14z"/>
  </g>
</svg>
