<svg width="500" height="500" viewBox="0 0 500 500" fill="none" xmlns="http://www.w3.org/2000/svg">
<rect width="500" height="500" fill="#103DFF"/>
<path d="M336.477 379.5L330.527 378.45C327.494 377.983 324.344 377.517 321.077 377.05C318.044 376.583 314.894 376.233 311.627 376C308.361 376 305.094 375.067 301.827 373.2C298.794 371.567 296.694 369 295.527 365.5C295.294 364.333 294.944 363.167 294.477 362C294.244 360.833 294.011 359.667 293.777 358.5C293.777 355.7 294.361 353.6 295.527 352.2C296.694 351.033 297.627 349.867 298.327 348.7C299.261 347.533 300.194 346.483 301.127 345.55C301.594 345.083 302.061 344.733 302.527 344.5C302.994 344.267 303.461 344.033 303.927 343.8C305.094 343.1 306.261 342.633 307.427 342.4C308.594 341.933 309.761 341.583 310.927 341.35C311.394 341.117 311.744 341.117 311.977 341.35C312.444 341.35 312.794 341.35 313.027 341.35C314.194 341.583 315.477 341.817 316.877 342.05C318.277 342.05 319.561 342.283 320.727 342.75L335.427 344.85C338.694 345.317 341.611 344.85 344.177 343.45C345.111 342.983 345.927 342.517 346.627 342.05C347.561 341.583 348.377 341.117 349.077 340.65C354.211 337.617 358.644 334.467 362.377 331.2C365.177 328.633 367.861 326.067 370.427 323.5C372.994 320.933 375.327 318.133 377.427 315.1C379.061 313 380.111 310.9 380.577 308.8C381.044 306.467 381.161 304.133 380.927 301.8L379.877 299C379.644 297.833 379.177 296.9 378.477 296.2C377.777 295.5 377.077 294.683 376.377 293.75C374.977 292.583 373.577 291.3 372.177 289.9C371.011 288.5 369.727 287.333 368.327 286.4C364.827 283.6 361.327 280.917 357.827 278.35C354.561 275.783 351.177 273.217 347.677 270.65C347.444 270.183 346.744 269.717 345.577 269.25C343.477 267.85 341.377 266.333 339.277 264.7C337.411 262.833 335.544 261.083 333.677 259.45C331.344 257.117 328.777 254.9 325.977 252.8C324.577 252.1 323.294 250.933 322.127 249.3C321.194 248.133 319.794 246.967 317.927 245.8C316.294 244.867 314.777 243.817 313.377 242.65C311.977 241.25 310.577 239.967 309.177 238.8L304.627 234.6C303.694 233.433 302.644 232.383 301.477 231.45C300.544 230.283 299.494 229.117 298.327 227.95C297.861 226.783 297.161 225.85 296.227 225.15C295.527 224.45 294.827 223.633 294.127 222.7C293.894 222.233 293.544 221.767 293.077 221.3C292.611 220.6 292.261 219.9 292.027 219.2C290.627 216.4 289.111 213.6 287.477 210.8C286.077 208 284.794 205.083 283.627 202.05C282.927 200.183 282.227 198.433 281.527 196.8C281.061 194.933 280.594 193.183 280.127 191.55C279.894 189.683 279.427 188.05 278.727 186.65C278.261 185.017 277.794 183.383 277.327 181.75C276.861 179.183 276.277 176.733 275.577 174.4C275.111 171.833 274.644 169.383 274.177 167.05L273.477 164.25C273.244 161.683 273.244 159.233 273.477 156.9C273.944 153.633 274.644 150.717 275.577 148.15C276.511 145.35 278.027 143.133 280.127 141.5C282.461 139.633 284.794 137.767 287.127 135.9C289.461 134.033 291.911 132.517 294.477 131.35C294.944 131.35 295.294 131.233 295.527 131C297.861 129.133 300.427 127.85 303.227 127.15C306.027 126.217 308.827 125.4 311.627 124.7C322.827 121.433 334.377 118.983 346.277 117.35H349.777C352.111 117.35 354.327 117.35 356.427 117.35C358.527 117.35 360.744 117.233 363.077 117C365.877 117 368.677 117.35 371.477 118.05C374.277 118.517 376.961 119.333 379.527 120.5C381.394 121.433 383.261 122.483 385.127 123.65C386.994 124.583 388.744 125.633 390.377 126.8C392.244 128.2 393.411 129.717 393.877 131.35L394.927 133.8C396.094 135.9 396.677 138.117 396.677 140.45C396.911 142.55 396.794 144.767 396.327 147.1C396.327 147.8 396.211 148.617 395.977 149.55C395.977 150.25 395.977 150.95 395.977 151.65C395.277 156.783 392.827 160.75 388.627 163.55C386.061 165.883 382.677 166.817 378.477 166.35C377.544 165.883 377.077 166.117 377.077 167.05C377.077 167.983 376.494 168.45 375.327 168.45H373.227C371.827 168.45 370.427 167.75 369.027 166.35C367.861 165.183 367.277 164.25 367.277 163.55C367.277 162.617 367.744 161.917 368.677 161.45C368.211 160.283 367.744 159.233 367.277 158.3C366.811 157.367 366.344 156.667 365.877 156.2C365.177 155.033 364.127 154.217 362.727 153.75C361.561 153.517 360.394 153.283 359.227 153.05C358.061 152.817 356.894 152.583 355.727 152.35C354.794 152.35 353.744 152.35 352.577 152.35C351.411 152.117 350.244 151.883 349.077 151.65C348.377 151.417 347.327 151.533 345.927 152C345.227 152.233 344.527 152.467 343.827 152.7C343.127 152.7 342.311 152.583 341.377 152.35C340.677 152.35 339.861 152.35 338.927 152.35C338.227 152.35 337.411 152.583 336.477 153.05L329.827 154.1C326.094 154.8 322.477 156.2 318.977 158.3C318.277 158.533 317.577 158.767 316.877 159C316.177 159.233 315.477 159.233 314.777 159C313.377 158.767 312.211 159.117 311.277 160.05C311.044 160.517 310.461 160.867 309.527 161.1C308.827 161.1 308.244 161.333 307.777 161.8C306.844 162.733 306.377 163.667 306.377 164.6C306.611 165.067 306.727 165.767 306.727 166.7L314.077 188.05C315.477 191.783 317.227 195.283 319.327 198.55C321.661 201.583 324.111 204.617 326.677 207.65C330.644 212.317 334.727 216.283 338.927 219.55L350.127 229C352.461 231.1 354.911 233.083 357.477 234.95C360.044 236.817 362.494 238.683 364.827 240.55C368.327 243.117 371.827 245.8 375.327 248.6C378.827 251.167 382.327 253.85 385.827 256.65C388.627 258.983 391.311 261.317 393.877 263.65C396.677 265.75 399.244 268.083 401.577 270.65C403.211 272.517 404.844 274.383 406.477 276.25C408.111 278.117 409.511 280.217 410.677 282.55C412.311 285.117 413.711 288.15 414.877 291.65C416.277 296.083 416.861 300.283 416.627 304.25C416.394 304.717 416.277 305.417 416.277 306.35C416.277 309.15 415.927 311.833 415.227 314.4C414.761 316.733 413.944 319.183 412.777 321.75C411.611 324.083 410.327 326.533 408.927 329.1C407.761 331.433 406.361 333.767 404.727 336.1C402.394 339.133 399.944 342.05 397.377 344.85C395.044 347.417 392.361 349.983 389.327 352.55C387.694 353.95 386.061 355.467 384.427 357.1C382.794 358.5 381.044 359.783 379.177 360.95C378.011 361.883 376.844 362.7 375.677 363.4C374.511 364.333 373.344 365.267 372.177 366.2C371.244 366.667 370.311 367.25 369.377 367.95C368.444 368.65 367.511 369.35 366.577 370.05C365.644 370.983 364.477 371.683 363.077 372.15C361.911 372.85 360.744 373.433 359.577 373.9L349.427 378.1C347.327 378.8 345.227 379.267 343.127 379.5C341.027 379.733 338.811 379.733 336.477 379.5Z" fill="white"/>
<path d="M218.15 383H216.4C215.7 383 214.883 382.883 213.95 382.65C213.25 382.65 212.433 382.65 211.5 382.65C209.867 382.883 208.467 382.533 207.3 381.6C206.367 380.9 205.317 379.967 204.15 378.8C203.683 378.333 203.1 377.75 202.4 377.05C201.933 376.583 201.35 376.233 200.65 376C200.183 375.767 199.717 375.183 199.25 374.25C199.017 373.783 198.667 373.2 198.2 372.5C197.967 371.8 197.617 371.1 197.15 370.4C196.683 369.233 196.567 367.95 196.8 366.55C197.033 365.85 197.15 365.15 197.15 364.45C197.383 363.983 197.5 363.4 197.5 362.7C197.5 360.367 197.5 358.15 197.5 356.05C197.5 353.717 197.267 351.383 196.8 349.05C196.567 348.35 196.45 347.65 196.45 346.95C196.45 346.017 196.333 345.083 196.1 344.15C196.1 342.517 195.983 341.233 195.75 340.3C195.75 339.133 195.633 338.083 195.4 337.15C195.4 336.217 195.4 335.283 195.4 334.35C195.167 332.717 195.05 331.2 195.05 329.8C195.05 328.4 194.817 326.883 194.35 325.25V324.2C194.35 321.167 194.117 318.25 193.65 315.45C193.417 312.417 193.3 309.383 193.3 306.35C193.3 304.95 193.183 303.9 192.95 303.2C192.717 301.1 192.483 299 192.25 296.9C192.25 294.567 192.25 292.233 192.25 289.9C192.25 287.8 192.25 285.7 192.25 283.6C192.25 281.267 192.017 279.05 191.55 276.95C191.317 276.483 191.2 275.9 191.2 275.2C191.2 274.5 191.2 273.917 191.2 273.45C191.2 263.883 191.2 254.317 191.2 244.75C191.2 235.183 191.317 225.733 191.55 216.4C191.55 215.233 191.55 214.067 191.55 212.9C191.783 211.733 191.9 210.567 191.9 209.4C191.9 208.7 191.9 208 191.9 207.3C192.133 206.6 192.25 206.017 192.25 205.55C192.25 202.983 192.25 200.417 192.25 197.85C192.483 195.05 192.717 192.367 192.95 189.8C193.417 189.1 193.417 188.167 192.95 187C192.717 186.767 192.367 186.65 191.9 186.65L190.85 187.7C190.383 188.4 189.8 189.1 189.1 189.8C188.4 190.5 187.817 191.2 187.35 191.9C186.417 193.3 185.367 194.817 184.2 196.45C183.267 197.85 182.217 199.367 181.05 201C179.417 203.8 177.667 206.717 175.8 209.75C173.933 212.55 172.533 215.583 171.6 218.85C171.367 219.317 171.133 219.9 170.9 220.6C170.667 221.067 170.433 221.533 170.2 222C169.267 224.333 168.217 226.667 167.05 229C166.117 231.1 165.183 233.433 164.25 236C162.85 239.033 160.867 241.833 158.3 244.4C157.833 244.867 157.367 245.1 156.9 245.1C155.733 245.8 154.45 246.5 153.05 247.2C151.65 247.667 150.133 247.783 148.5 247.55H146.4C144.3 248.017 142.55 247.55 141.15 246.15C139.517 245.683 138.117 244.867 136.95 243.7C136.017 242.533 134.967 241.25 133.8 239.85C132.867 238.683 132.05 237.283 131.35 235.65C130.883 234.017 130.65 232.383 130.65 230.75C130.417 230.283 130.3 229.7 130.3 229C130.3 228.3 130.3 227.717 130.3 227.25C130.067 226.783 129.833 226.317 129.6 225.85C129.367 225.15 129.25 224.683 129.25 224.45C129.25 223.983 129.017 223.283 128.55 222.35C128.083 221.417 127.15 219.55 125.75 216.75C124.35 213.95 123.65 212.667 123.65 212.9C122.95 211.733 122.25 210.45 121.55 209.05C120.85 207.65 120.033 206.367 119.1 205.2L117 201.35C116.533 201.35 116.183 201.233 115.95 201L115.6 201.35C115.6 202.05 115.6 202.75 115.6 203.45C115.6 204.15 115.717 204.85 115.95 205.55C116.417 208.117 116.65 210.683 116.65 213.25C116.65 215.817 116.417 218.383 115.95 220.95C115.95 222.35 116.067 223.517 116.3 224.45C116.533 224.917 116.65 225.733 116.65 226.9C116.65 228.3 116.65 229.7 116.65 231.1C116.883 232.5 116.883 233.9 116.65 235.3C116.417 236.467 116.3 237.75 116.3 239.15C116.533 240.317 116.767 241.483 117 242.65V246.15C116.533 247.55 116.533 249.067 117 250.7C117.233 251.867 117.233 253.15 117 254.55C117 255.717 117.117 256.883 117.35 258.05C117.35 259.217 117.117 260.733 116.65 262.6C115.25 268.2 115.6 273.567 117.7 278.7C117.933 279.633 118.167 280.567 118.4 281.5C118.633 282.2 118.633 283.017 118.4 283.95C118.4 284.65 118.4 285.35 118.4 286.05C118.4 286.75 118.517 287.45 118.75 288.15C119.217 289.083 119.45 290.017 119.45 290.95C119.683 293.517 119.8 295.5 119.8 296.9C120.033 298.3 120.267 299.35 120.5 300.05C120.967 302.617 121.433 305.3 121.9 308.1C122.367 310.667 122.833 313.233 123.3 315.8C123.767 318.833 124.233 321.867 124.7 324.9C125.4 327.7 125.75 330.617 125.75 333.65C125.75 334.583 125.867 335.283 126.1 335.75C126.567 337.617 126.8 339.6 126.8 341.7C126.8 343.567 126.917 345.433 127.15 347.3C127.15 349.867 126.567 351.85 125.4 353.25C124.933 354.183 124.7 354.767 124.7 355C122.6 359.433 118.867 362 113.5 362.7C112.8 362.933 112.1 363.05 111.4 363.05C110.7 363.05 110 363.05 109.3 363.05C106.733 363.517 104.867 363.05 103.7 361.65C103.233 361.183 102.767 360.95 102.3 360.95C101.133 361.183 99.9667 360.483 98.8 358.85C98.1 357.683 97.05 356.633 95.65 355.7C94.95 355 94.3667 353.833 93.9 352.2C93.6667 351.733 93.4333 351.267 93.2 350.8C93.2 350.333 93.2 349.867 93.2 349.4C92.9667 346.133 92.6167 342.983 92.15 339.95C91.6833 336.683 91.3333 333.533 91.1 330.5L90.75 327C90.5167 326.067 90.4 325.25 90.4 324.55C90.4 323.85 90.2833 323.033 90.05 322.1V320C89.35 316.733 89 313.467 89 310.2C89 306.7 89.1167 303.317 89.35 300.05C89.5833 297.95 89.7 295.85 89.7 293.75C89.7 291.417 89.8167 289.2 90.05 287.1V279.05C90.05 277.883 90.05 276.717 90.05 275.55C90.05 274.15 89.9333 272.867 89.7 271.7C89.4667 270.3 89.35 268.9 89.35 267.5C89.35 266.1 89.35 264.7 89.35 263.3V247.2C89.1167 245.333 89 243.467 89 241.6C89 239.5 89 237.517 89 235.65C89 234.95 89 234.25 89 233.55C89 232.617 88.8833 231.8 88.65 231.1C88.65 229.933 88.5333 228.883 88.3 227.95C88.3 226.783 88.1833 225.733 87.95 224.8V222.35C87.4833 220.25 87.25 218.267 87.25 216.4C87.25 214.3 87.25 212.2 87.25 210.1C87.25 208.233 87.25 206.367 87.25 204.5C87.25 202.4 87.0167 200.533 86.55 198.9C86.3167 198.2 86.2 197.5 86.2 196.8C86.2 196.1 86.2 195.4 86.2 194.7C86.2 193.067 86.2 191.55 86.2 190.15C86.2 188.517 85.9667 186.883 85.5 185.25C85.2667 184.783 85.15 183.967 85.15 182.8V165.3C85.15 164.133 85.15 163.083 85.15 162.15C85.15 160.983 84.9167 159.933 84.45 159C83.75 156.667 83.8667 153.983 84.8 150.95C85.2667 149.783 85.7333 148.967 86.2 148.5C86.6667 147.8 87.1333 147.1 87.6 146.4C88.0667 145.7 88.4167 145 88.65 144.3C89.1167 143.6 89.4667 143.25 89.7 143.25C90.6333 143.017 91.3333 142.667 91.8 142.2C92.5 141.733 93.0833 141.267 93.55 140.8L95.65 139.75C96.1167 139.517 96.8167 139.4 97.75 139.4C98.9167 139.633 100.083 139.867 101.25 140.1C102.65 140.1 103.933 140.217 105.1 140.45C106.5 140.45 107.55 141.033 108.25 142.2C109.417 143.833 110.583 145.467 111.75 147.1C112.917 148.733 113.85 150.483 114.55 152.35C115.25 153.983 116.183 155.383 117.35 156.55C118.75 158.417 120.15 160.283 121.55 162.15C122.95 164.017 124.467 165.883 126.1 167.75C126.8 168.45 127.383 169.267 127.85 170.2C128.55 171.133 129.133 172.067 129.6 173C130.767 174.633 131.817 176.267 132.75 177.9C133.917 179.3 135.083 180.817 136.25 182.45L141.5 190.85C141.967 191.783 142.433 192.717 142.9 193.65C143.367 194.35 143.833 195.05 144.3 195.75C144.767 196.917 145.467 197.033 146.4 196.1C147.333 194.933 148.267 193.767 149.2 192.6C150.367 191.2 151.417 189.917 152.35 188.75C154.45 186.183 156.55 183.5 158.65 180.7C160.75 177.9 162.967 175.217 165.3 172.65L167.4 169.5C169.033 167.167 170.55 164.95 171.95 162.85C173.583 160.517 175.1 158.183 176.5 155.85C178.133 153.283 179.533 150.717 180.7 148.15C182.1 145.583 183.267 143.017 184.2 140.45L188.4 131C189.8 128.2 191.783 125.867 194.35 124C197.85 121.2 201.7 120.15 205.9 120.85C207.533 121.083 209.05 121.55 210.45 122.25C211.85 122.717 213.25 123.183 214.65 123.65C216.05 124.117 216.983 125.167 217.45 126.8C217.917 127.5 218.267 128.2 218.5 128.9C218.733 129.6 218.85 130.3 218.85 131C219.083 132.633 219.433 134.15 219.9 135.55C220.367 136.717 220.717 138.117 220.95 139.75L221.3 143.25C221.767 145.35 222.233 147.45 222.7 149.55C223.4 151.65 223.983 153.75 224.45 155.85V156.55C224.683 158.883 224.917 161.217 225.15 163.55C225.617 165.65 225.733 167.867 225.5 170.2V178.25C225.5 179.417 225.5 180.583 225.5 181.75C225.5 182.917 225.383 184.083 225.15 185.25C224.917 186.883 224.8 188.517 224.8 190.15C224.8 191.55 224.8 193.067 224.8 194.7C224.567 195.633 224.45 196.567 224.45 197.5C224.45 198.433 224.333 199.367 224.1 200.3C223.867 201.233 223.75 202.167 223.75 203.1C223.75 203.8 223.75 204.733 223.75 205.9V215.7C223.75 217.333 223.633 218.85 223.4 220.25C223.4 221.65 223.283 223.167 223.05 224.8C222.817 225.733 222.7 226.667 222.7 227.6C222.7 228.3 222.7 229.117 222.7 230.05V251.4C222.7 253.033 222.7 254.667 222.7 256.3C222.933 257.933 223.167 259.567 223.4 261.2C223.633 262.367 223.75 263.65 223.75 265.05C223.75 266.217 223.75 267.383 223.75 268.55C223.983 270.183 224.1 271.817 224.1 273.45C224.1 274.85 224.217 276.483 224.45 278.35V282.2C224.683 284.067 224.8 286.05 224.8 288.15C224.8 290.017 224.8 291.883 224.8 293.75V298.3C225.267 299.933 225.5 301.683 225.5 303.55C225.5 305.417 225.617 307.283 225.85 309.15V311.6C226.317 313 226.55 314.4 226.55 315.8C226.55 317.2 226.667 318.6 226.9 320L227.95 332.6C228.183 333.533 228.3 334.467 228.3 335.4C228.533 336.1 228.65 336.917 228.65 337.85C228.883 338.783 229 339.717 229 340.65C229 341.35 229.117 342.167 229.35 343.1C229.35 343.333 229.35 343.683 229.35 344.15C229.583 344.617 229.7 345.083 229.7 345.55C229.7 347.183 229.817 348.933 230.05 350.8C230.517 352.667 230.867 354.533 231.1 356.4L232.5 366.2C232.5 367.6 232.383 368.533 232.15 369C231.917 370.4 231.333 371.683 230.4 372.85C229.7 374.25 229.117 375.533 228.65 376.7C228.65 376.933 228.533 377.05 228.3 377.05C226.667 378.45 225.033 379.617 223.4 380.55C221.767 381.717 220.017 382.533 218.15 383Z" fill="white"/>
</svg>
