<svg width="350" height="350" viewBox="0 0 350 350" fill="none" xmlns="http://www.w3.org/2000/svg">
<path d="M175 0C271.65 0 350 78.3502 350 175C350 271.65 271.65 350 175 350C78.3502 350 0 271.65 0 175C0 78.3502 78.3502 0 175 0ZM219.271 100.296C218.864 75.1482 185.756 66.2769 172.829 87.8516L170.381 91.9385C163.447 103.512 148.579 107.496 136.787 100.94L132.623 98.625C110.641 86.4042 86.4041 110.641 98.625 132.623L100.94 136.787C107.496 148.579 103.513 163.446 91.9395 170.38L87.8525 172.829C66.2774 185.756 75.1489 218.863 100.297 219.271L105.061 219.348C118.55 219.566 129.434 230.45 129.652 243.939L129.729 248.703C130.137 273.851 163.244 282.722 176.171 261.147L178.62 257.061C185.554 245.487 200.421 241.504 212.213 248.06L216.377 250.374C238.359 262.595 262.596 238.358 250.375 216.376L248.06 212.213C241.504 200.421 245.487 185.554 257.061 178.619L261.147 176.171C282.722 163.244 273.852 130.136 248.704 129.729L243.94 129.651C230.45 129.433 219.567 118.55 219.349 105.06L219.271 100.296Z" fill="#2D250E"/>
</svg>
